<svg width="831" height="955" viewBox="0 0 831 955" fill="none" xmlns="http://www.w3.org/2000/svg">
<path fill-rule="evenodd" clip-rule="evenodd" d="M516.993 31.4227C628.826 11.846 758.408 -31.0765 849.21 37.0872C940.009 105.248 936.115 241.559 947.427 354.541C956.612 446.27 923.234 530.524 907.715 621.396C888.622 733.188 923.129 864.269 846.151 947.544C766.584 1033.62 634.079 1049.39 516.993 1044.08C403.431 1038.92 291.517 996.655 208.864 918.594C131.923 845.928 117.931 735.386 83.9937 635.135C49.5234 533.308 -26.5399 430.783 9.43635 329.479C45.3182 228.441 167.287 194.565 259.734 140.276C342.042 91.9414 422.975 47.8806 516.993 31.4227Z" fill="#002994"/>
</svg>
