<svg width="961" height="1040" viewBox="0 0 961 1040" fill="none" xmlns="http://www.w3.org/2000/svg">
<path fill-rule="evenodd" clip-rule="evenodd" d="M708.403 129.385C805.886 187.583 932.056 239.688 956.318 350.606C980.579 461.519 888.621 562.215 823.414 655.172C770.473 730.642 690.177 772.66 619.086 831.349C531.627 903.551 472.169 1025.36 359.491 1038.17C243.023 1051.4 132.366 976.827 47.161 896.343C-35.4795 818.282 -92.6437 713.197 -104.271 600.105C-115.095 494.828 -53.5101 401.969 -13.7513 303.881C26.6323 204.252 35.9711 76.9339 129.368 23.7007C222.52 -29.3929 337.016 24.5931 442.483 43.8427C536.383 60.981 626.45 80.4579 708.403 129.385Z" fill="#2F0094"/>
</svg>
