<svg width="1513" height="900" viewBox="0 0 1513 900" fill="none" xmlns="http://www.w3.org/2000/svg">
<path fill-rule="evenodd" clip-rule="evenodd" d="M0 893.499L63 871.555C126 849.61 252 805.722 378 805.722C504 805.722 630 849.61 756 875.212C882 900.814 1008 908.129 1134 889.842C1260 871.555 1386 827.666 1449 805.722L1512 783.777V696H1449C1386 696 1260 696 1134 696C1008 696 882 696 756 696C630 696 504 696 378 696C252 696 126 696 63 696H0L0 893.499Z" fill="#003CD7" fill-opacity="0.5"/>
<path fill-rule="evenodd" clip-rule="evenodd" d="M1512 893.499L1449 871.555C1386 849.61 1260 805.722 1134 805.722C1008 805.722 882 849.61 756 875.212C630 900.814 504 908.129 378 889.842C252 871.555 126 827.666 63 805.722L0 783.777V696H63C126 696 252 696 378 696C504 696 630 696 756 696C882 696 1008 696 1134 696C1260 696 1386 696 1449 696H1512V893.499Z" fill="url(#paint0_linear_84_92)"/>
<path d="M1 0H1513V704H1V0Z" fill="url(#paint1_linear_84_92)"/>
<ellipse cx="893.737" cy="340.5" rx="2.36498" ry="2.5" fill="#D9D9D9" fill-opacity="0.5"/>
<ellipse cx="817.111" cy="372.5" rx="2.36498" ry="2.5" fill="#D9D9D9" fill-opacity="0.5"/>
<ellipse cx="898.467" cy="230.5" rx="2.36498" ry="2.5" fill="#D9D9D9" fill-opacity="0.5"/>
<ellipse cx="1105.64" cy="367.5" rx="2.36498" ry="2.5" fill="#D9D9D9" fill-opacity="0.5"/>
<ellipse cx="988.336" cy="272.5" rx="2.36498" ry="2.5" fill="#D9D9D9" fill-opacity="0.5"/>
<ellipse cx="1044.15" cy="251.5" rx="2.36498" ry="2.5" fill="#D9D9D9" fill-opacity="0.5"/>
<ellipse cx="1164.29" cy="314.5" rx="2.36498" ry="2.5" fill="#D9D9D9" fill-opacity="0.5"/>
<ellipse cx="950.496" cy="377.5" rx="2.36498" ry="2.5" fill="#D9D9D9" fill-opacity="0.5"/>
<ellipse cx="1182.26" cy="325.5" rx="2.36498" ry="2.5" fill="#D9D9D9" fill-opacity="0.5"/>
<ellipse cx="1105.64" cy="357.5" rx="2.36498" ry="2.5" fill="#D9D9D9" fill-opacity="0.5"/>
<ellipse cx="1186.99" cy="215.5" rx="2.36498" ry="2.5" fill="#D9D9D9" fill-opacity="0.5"/>
<ellipse cx="1394.17" cy="352.5" rx="2.36498" ry="2.5" fill="#D9D9D9" fill-opacity="0.5"/>
<ellipse cx="1276.86" cy="257.5" rx="2.36498" ry="2.5" fill="#D9D9D9" fill-opacity="0.5"/>
<ellipse cx="1332.68" cy="236.5" rx="2.36498" ry="2.5" fill="#D9D9D9" fill-opacity="0.5"/>
<ellipse cx="1452.82" cy="299.5" rx="2.36498" ry="2.5" fill="#D9D9D9" fill-opacity="0.5"/>
<ellipse cx="1239.02" cy="362.5" rx="2.36498" ry="2.5" fill="#D9D9D9" fill-opacity="0.5"/>
<ellipse cx="429.255" cy="486.5" rx="2.36498" ry="2.5" fill="#D9D9D9" fill-opacity="0.5"/>
<ellipse cx="352.629" cy="518.5" rx="2.36498" ry="2.5" fill="#D9D9D9" fill-opacity="0.5"/>
<ellipse cx="433.985" cy="376.5" rx="2.36498" ry="2.5" fill="#D9D9D9" fill-opacity="0.5"/>
<ellipse cx="641.157" cy="513.5" rx="2.36498" ry="2.5" fill="#D9D9D9" fill-opacity="0.5"/>
<ellipse cx="523.854" cy="418.5" rx="2.36498" ry="2.5" fill="#D9D9D9" fill-opacity="0.5"/>
<ellipse cx="579.667" cy="397.5" rx="2.36498" ry="2.5" fill="#D9D9D9" fill-opacity="0.5"/>
<ellipse cx="699.808" cy="460.5" rx="2.36498" ry="2.5" fill="#D9D9D9" fill-opacity="0.5"/>
<ellipse cx="486.014" cy="523.5" rx="2.36498" ry="2.5" fill="#D9D9D9" fill-opacity="0.5"/>
<ellipse cx="641.157" cy="215.5" rx="2.36498" ry="2.5" fill="#D9D9D9" fill-opacity="0.5"/>
<ellipse cx="564.532" cy="247.5" rx="2.36498" ry="2.5" fill="#D9D9D9" fill-opacity="0.5"/>
<ellipse cx="645.887" cy="105.5" rx="2.36498" ry="2.5" fill="#D9D9D9" fill-opacity="0.5"/>
<ellipse cx="853.059" cy="242.5" rx="2.36498" ry="2.5" fill="#D9D9D9" fill-opacity="0.5"/>
<ellipse cx="735.756" cy="147.5" rx="2.36498" ry="2.5" fill="#D9D9D9" fill-opacity="0.5"/>
<ellipse cx="791.57" cy="126.5" rx="2.36498" ry="2.5" fill="#D9D9D9" fill-opacity="0.5"/>
<ellipse cx="911.711" cy="189.5" rx="2.36498" ry="2.5" fill="#D9D9D9" fill-opacity="0.5"/>
<ellipse cx="697.916" cy="252.5" rx="2.36498" ry="2.5" fill="#D9D9D9" fill-opacity="0.5"/>
<ellipse cx="328.034" cy="245.5" rx="2.36498" ry="2.5" fill="#D9D9D9" fill-opacity="0.5"/>
<ellipse cx="251.408" cy="277.5" rx="2.36498" ry="2.5" fill="#D9D9D9" fill-opacity="0.5"/>
<ellipse cx="332.764" cy="135.5" rx="2.36498" ry="2.5" fill="#D9D9D9" fill-opacity="0.5"/>
<ellipse cx="539.936" cy="272.5" rx="2.36498" ry="2.5" fill="#D9D9D9" fill-opacity="0.5"/>
<ellipse cx="422.633" cy="177.5" rx="2.36498" ry="2.5" fill="#D9D9D9" fill-opacity="0.5"/>
<ellipse cx="478.446" cy="156.5" rx="2.36498" ry="2.5" fill="#D9D9D9" fill-opacity="0.5"/>
<ellipse cx="598.587" cy="219.5" rx="2.36498" ry="2.5" fill="#D9D9D9" fill-opacity="0.5"/>
<ellipse cx="384.793" cy="282.5" rx="2.36498" ry="2.5" fill="#D9D9D9" fill-opacity="0.5"/>
<ellipse cx="365.873" cy="398.5" rx="2.36498" ry="2.5" fill="#D9D9D9" fill-opacity="0.5"/>
<ellipse cx="289.248" cy="430.5" rx="2.36498" ry="2.5" fill="#D9D9D9" fill-opacity="0.5"/>
<ellipse cx="370.603" cy="288.5" rx="2.36498" ry="2.5" fill="#D9D9D9" fill-opacity="0.5"/>
<ellipse cx="577.775" cy="425.5" rx="2.36498" ry="2.5" fill="#D9D9D9" fill-opacity="0.5"/>
<ellipse cx="460.472" cy="330.5" rx="2.36498" ry="2.5" fill="#D9D9D9" fill-opacity="0.5"/>
<ellipse cx="516.286" cy="309.5" rx="2.36498" ry="2.5" fill="#D9D9D9" fill-opacity="0.5"/>
<ellipse cx="636.427" cy="372.5" rx="2.36498" ry="2.5" fill="#D9D9D9" fill-opacity="0.5"/>
<ellipse cx="422.633" cy="435.5" rx="2.36498" ry="2.5" fill="#D9D9D9" fill-opacity="0.5"/>
<ellipse cx="696.97" cy="403.5" rx="2.36498" ry="2.5" fill="#D9D9D9" fill-opacity="0.5"/>
<ellipse cx="620.345" cy="435.5" rx="2.36498" ry="2.5" fill="#D9D9D9" fill-opacity="0.5"/>
<ellipse cx="701.7" cy="293.5" rx="2.36498" ry="2.5" fill="#D9D9D9" fill-opacity="0.5"/>
<ellipse cx="908.873" cy="430.5" rx="2.36498" ry="2.5" fill="#D9D9D9" fill-opacity="0.5"/>
<ellipse cx="791.57" cy="335.5" rx="2.36498" ry="2.5" fill="#D9D9D9" fill-opacity="0.5"/>
<ellipse cx="847.383" cy="314.5" rx="2.36498" ry="2.5" fill="#D9D9D9" fill-opacity="0.5"/>
<ellipse cx="967.524" cy="377.5" rx="2.36498" ry="2.5" fill="#D9D9D9" fill-opacity="0.5"/>
<ellipse cx="753.73" cy="440.5" rx="2.36498" ry="2.5" fill="#D9D9D9" fill-opacity="0.5"/>
<ellipse cx="731.026" cy="235.5" rx="2.36498" ry="2.5" fill="#D9D9D9" fill-opacity="0.5"/>
<ellipse cx="654.401" cy="267.5" rx="2.36498" ry="2.5" fill="#D9D9D9" fill-opacity="0.5"/>
<ellipse cx="735.756" cy="125.5" rx="2.36498" ry="2.5" fill="#D9D9D9" fill-opacity="0.5"/>
<ellipse cx="942.928" cy="262.5" rx="2.36498" ry="2.5" fill="#D9D9D9" fill-opacity="0.5"/>
<ellipse cx="825.625" cy="167.5" rx="2.36498" ry="2.5" fill="#D9D9D9" fill-opacity="0.5"/>
<ellipse cx="881.439" cy="146.5" rx="2.36498" ry="2.5" fill="#D9D9D9" fill-opacity="0.5"/>
<ellipse cx="1001.58" cy="209.5" rx="2.36498" ry="2.5" fill="#D9D9D9" fill-opacity="0.5"/>
<ellipse cx="787.786" cy="272.5" rx="2.36498" ry="2.5" fill="#D9D9D9" fill-opacity="0.5"/>
<ellipse cx="936.306" cy="403.5" rx="2.36498" ry="2.5" fill="#D9D9D9" fill-opacity="0.5"/>
<ellipse cx="859.681" cy="435.5" rx="2.36498" ry="2.5" fill="#D9D9D9" fill-opacity="0.5"/>
<ellipse cx="941.036" cy="293.5" rx="2.36498" ry="2.5" fill="#D9D9D9" fill-opacity="0.5"/>
<ellipse cx="1148.21" cy="430.5" rx="2.36498" ry="2.5" fill="#D9D9D9" fill-opacity="0.5"/>
<ellipse cx="1030.91" cy="335.5" rx="2.36498" ry="2.5" fill="#D9D9D9" fill-opacity="0.5"/>
<ellipse cx="1086.72" cy="314.5" rx="2.36498" ry="2.5" fill="#D9D9D9" fill-opacity="0.5"/>
<ellipse cx="1206.86" cy="377.5" rx="2.36498" ry="2.5" fill="#D9D9D9" fill-opacity="0.5"/>
<ellipse cx="993.066" cy="440.5" rx="2.36498" ry="2.5" fill="#D9D9D9" fill-opacity="0.5"/>
<ellipse cx="185.99" cy="147.5" rx="2.36498" ry="2.5" fill="#D9D9D9" fill-opacity="0.5"/>
<ellipse cx="109.365" cy="179.5" rx="2.36498" ry="2.5" fill="#D9D9D9" fill-opacity="0.5"/>
<ellipse cx="190.72" cy="37.5" rx="2.36498" ry="2.5" fill="#D9D9D9" fill-opacity="0.5"/>
<ellipse cx="397.893" cy="174.5" rx="2.36498" ry="2.5" fill="#D9D9D9" fill-opacity="0.5"/>
<ellipse cx="280.59" cy="79.5" rx="2.36498" ry="2.5" fill="#D9D9D9" fill-opacity="0.5"/>
<ellipse cx="336.403" cy="58.5" rx="2.36498" ry="2.5" fill="#D9D9D9" fill-opacity="0.5"/>
<ellipse cx="456.544" cy="121.5" rx="2.36498" ry="2.5" fill="#D9D9D9" fill-opacity="0.5"/>
<ellipse cx="242.75" cy="184.5" rx="2.36498" ry="2.5" fill="#D9D9D9" fill-opacity="0.5"/>
<ellipse cx="543.99" cy="150.5" rx="2.36498" ry="2.5" fill="#D9D9D9" fill-opacity="0.5"/>
<ellipse cx="467.365" cy="182.5" rx="2.36498" ry="2.5" fill="#D9D9D9" fill-opacity="0.5"/>
<ellipse cx="548.72" cy="40.5" rx="2.36498" ry="2.5" fill="#D9D9D9" fill-opacity="0.5"/>
<ellipse cx="755.893" cy="177.5" rx="2.36498" ry="2.5" fill="#D9D9D9" fill-opacity="0.5"/>
<ellipse cx="638.59" cy="82.5" rx="2.36498" ry="2.5" fill="#D9D9D9" fill-opacity="0.5"/>
<ellipse cx="694.403" cy="61.5" rx="2.36498" ry="2.5" fill="#D9D9D9" fill-opacity="0.5"/>
<ellipse cx="814.544" cy="124.5" rx="2.36498" ry="2.5" fill="#D9D9D9" fill-opacity="0.5"/>
<ellipse cx="600.75" cy="187.5" rx="2.36498" ry="2.5" fill="#D9D9D9" fill-opacity="0.5"/>
<ellipse cx="963.99" cy="147.5" rx="2.36498" ry="2.5" fill="#D9D9D9" fill-opacity="0.5"/>
<ellipse cx="887.365" cy="179.5" rx="2.36498" ry="2.5" fill="#D9D9D9" fill-opacity="0.5"/>
<ellipse cx="968.72" cy="37.5" rx="2.36498" ry="2.5" fill="#D9D9D9" fill-opacity="0.5"/>
<ellipse cx="1175.89" cy="174.5" rx="2.36498" ry="2.5" fill="#D9D9D9" fill-opacity="0.5"/>
<ellipse cx="1058.59" cy="79.5" rx="2.36498" ry="2.5" fill="#D9D9D9" fill-opacity="0.5"/>
<ellipse cx="1114.4" cy="58.5" rx="2.36498" ry="2.5" fill="#D9D9D9" fill-opacity="0.5"/>
<ellipse cx="1234.54" cy="121.5" rx="2.36498" ry="2.5" fill="#D9D9D9" fill-opacity="0.5"/>
<ellipse cx="1020.75" cy="184.5" rx="2.36498" ry="2.5" fill="#D9D9D9" fill-opacity="0.5"/>
<ellipse cx="1187.99" cy="142.5" rx="2.36498" ry="2.5" fill="#D9D9D9" fill-opacity="0.5"/>
<ellipse cx="1111.36" cy="174.5" rx="2.36498" ry="2.5" fill="#D9D9D9" fill-opacity="0.5"/>
<ellipse cx="1192.72" cy="32.5" rx="2.36498" ry="2.5" fill="#D9D9D9" fill-opacity="0.5"/>
<ellipse cx="1399.89" cy="169.5" rx="2.36498" ry="2.5" fill="#D9D9D9" fill-opacity="0.5"/>
<ellipse cx="1282.59" cy="74.5" rx="2.36498" ry="2.5" fill="#D9D9D9" fill-opacity="0.5"/>
<ellipse cx="1338.4" cy="53.5" rx="2.36498" ry="2.5" fill="#D9D9D9" fill-opacity="0.5"/>
<ellipse cx="1458.54" cy="116.5" rx="2.36498" ry="2.5" fill="#D9D9D9" fill-opacity="0.5"/>
<ellipse cx="1244.75" cy="179.5" rx="2.36498" ry="2.5" fill="#D9D9D9" fill-opacity="0.5"/>
<ellipse cx="108.99" cy="245.5" rx="2.36498" ry="2.5" fill="#D9D9D9" fill-opacity="0.5"/>
<ellipse cx="32.365" cy="277.5" rx="2.36498" ry="2.5" fill="#D9D9D9" fill-opacity="0.5"/>
<ellipse cx="113.72" cy="135.5" rx="2.36498" ry="2.5" fill="#D9D9D9" fill-opacity="0.5"/>
<ellipse cx="320.893" cy="272.5" rx="2.36498" ry="2.5" fill="#D9D9D9" fill-opacity="0.5"/>
<ellipse cx="203.59" cy="177.5" rx="2.36498" ry="2.5" fill="#D9D9D9" fill-opacity="0.5"/>
<ellipse cx="259.403" cy="156.5" rx="2.36498" ry="2.5" fill="#D9D9D9" fill-opacity="0.5"/>
<ellipse cx="379.544" cy="219.5" rx="2.36498" ry="2.5" fill="#D9D9D9" fill-opacity="0.5"/>
<ellipse cx="165.75" cy="282.5" rx="2.36498" ry="2.5" fill="#D9D9D9" fill-opacity="0.5"/>
<ellipse cx="146.99" cy="403.5" rx="2.36498" ry="2.5" fill="#D9D9D9" fill-opacity="0.5"/>
<ellipse cx="70.365" cy="435.5" rx="2.36498" ry="2.5" fill="#D9D9D9" fill-opacity="0.5"/>
<ellipse cx="151.72" cy="293.5" rx="2.36498" ry="2.5" fill="#D9D9D9" fill-opacity="0.5"/>
<ellipse cx="358.893" cy="430.5" rx="2.36498" ry="2.5" fill="#D9D9D9" fill-opacity="0.5"/>
<ellipse cx="241.59" cy="335.5" rx="2.36498" ry="2.5" fill="#D9D9D9" fill-opacity="0.5"/>
<ellipse cx="297.403" cy="314.5" rx="2.36498" ry="2.5" fill="#D9D9D9" fill-opacity="0.5"/>
<ellipse cx="417.544" cy="377.5" rx="2.36498" ry="2.5" fill="#D9D9D9" fill-opacity="0.5"/>
<ellipse cx="203.75" cy="440.5" rx="2.36498" ry="2.5" fill="#D9D9D9" fill-opacity="0.5"/>
<ellipse cx="1091.99" cy="249.5" rx="2.36498" ry="2.5" fill="#D9D9D9" fill-opacity="0.5"/>
<ellipse cx="1015.36" cy="281.5" rx="2.36498" ry="2.5" fill="#D9D9D9" fill-opacity="0.5"/>
<ellipse cx="1096.72" cy="139.5" rx="2.36498" ry="2.5" fill="#D9D9D9" fill-opacity="0.5"/>
<ellipse cx="1303.89" cy="276.5" rx="2.36498" ry="2.5" fill="#D9D9D9" fill-opacity="0.5"/>
<ellipse cx="1186.59" cy="181.5" rx="2.36498" ry="2.5" fill="#D9D9D9" fill-opacity="0.5"/>
<ellipse cx="1242.4" cy="160.5" rx="2.36498" ry="2.5" fill="#D9D9D9" fill-opacity="0.5"/>
<ellipse cx="1362.54" cy="223.5" rx="2.36498" ry="2.5" fill="#D9D9D9" fill-opacity="0.5"/>
<ellipse cx="1148.75" cy="286.5" rx="2.36498" ry="2.5" fill="#D9D9D9" fill-opacity="0.5"/>
<ellipse cx="1357.83" cy="214.715" rx="2.36498" ry="2.5" transform="rotate(87.5566 1357.83 214.715)" fill="#D9D9D9" fill-opacity="0.5"/>
<ellipse cx="1322.59" cy="139.523" rx="2.36498" ry="2.5" transform="rotate(87.5566 1322.59 139.523)" fill="#D9D9D9" fill-opacity="0.5"/>
<ellipse cx="1467.93" cy="214.751" rx="2.36498" ry="2.5" transform="rotate(87.5566 1467.93 214.751)" fill="#D9D9D9" fill-opacity="0.5"/>
<ellipse cx="1339.89" cy="427.575" rx="2.36498" ry="2.5" transform="rotate(87.5566 1339.89 427.575)" fill="#D9D9D9" fill-opacity="0.5"/>
<ellipse cx="1429.8" cy="306.329" rx="2.36498" ry="2.5" transform="rotate(87.5566 1429.8 306.329)" fill="#D9D9D9" fill-opacity="0.5"/>
<ellipse cx="1453.16" cy="361.196" rx="2.36498" ry="2.5" transform="rotate(87.5566 1453.16 361.196)" fill="#D9D9D9" fill-opacity="0.5"/>
<ellipse cx="1395.34" cy="483.914" rx="2.36498" ry="2.5" transform="rotate(87.5566 1395.34 483.914)" fill="#D9D9D9" fill-opacity="0.5"/>
<ellipse cx="1323.29" cy="273" rx="2.36498" ry="2.5" transform="rotate(87.5566 1323.29 273)" fill="#D9D9D9" fill-opacity="0.5"/>
<ellipse cx="898.737" cy="686.5" rx="2.36498" ry="2.5" fill="#D9D9D9" fill-opacity="0.5"/>
<ellipse cx="822.111" cy="718.5" rx="2.36498" ry="2.5" fill="#D9D9D9" fill-opacity="0.5"/>
<ellipse cx="903.467" cy="576.5" rx="2.36498" ry="2.5" fill="#D9D9D9" fill-opacity="0.5"/>
<ellipse cx="1110.64" cy="713.5" rx="2.36498" ry="2.5" fill="#D9D9D9" fill-opacity="0.5"/>
<ellipse cx="993.336" cy="618.5" rx="2.36498" ry="2.5" fill="#D9D9D9" fill-opacity="0.5"/>
<ellipse cx="1049.15" cy="597.5" rx="2.36498" ry="2.5" fill="#D9D9D9" fill-opacity="0.5"/>
<ellipse cx="1169.29" cy="660.5" rx="2.36498" ry="2.5" fill="#D9D9D9" fill-opacity="0.5"/>
<ellipse cx="955.496" cy="723.5" rx="2.36498" ry="2.5" fill="#D9D9D9" fill-opacity="0.5"/>
<ellipse cx="1187.26" cy="671.5" rx="2.36498" ry="2.5" fill="#D9D9D9" fill-opacity="0.5"/>
<ellipse cx="1110.64" cy="703.5" rx="2.36498" ry="2.5" fill="#D9D9D9" fill-opacity="0.5"/>
<ellipse cx="1191.99" cy="561.5" rx="2.36498" ry="2.5" fill="#D9D9D9" fill-opacity="0.5"/>
<ellipse cx="1399.17" cy="698.5" rx="2.36498" ry="2.5" fill="#D9D9D9" fill-opacity="0.5"/>
<ellipse cx="1281.86" cy="603.5" rx="2.36498" ry="2.5" fill="#D9D9D9" fill-opacity="0.5"/>
<ellipse cx="1337.68" cy="582.5" rx="2.36498" ry="2.5" fill="#D9D9D9" fill-opacity="0.5"/>
<ellipse cx="1457.82" cy="645.5" rx="2.36498" ry="2.5" fill="#D9D9D9" fill-opacity="0.5"/>
<ellipse cx="1244.02" cy="708.5" rx="2.36498" ry="2.5" fill="#D9D9D9" fill-opacity="0.5"/>
<ellipse cx="434.255" cy="832.5" rx="2.36498" ry="2.5" fill="#D9D9D9" fill-opacity="0.5"/>
<ellipse cx="357.629" cy="864.5" rx="2.36498" ry="2.5" fill="#D9D9D9" fill-opacity="0.5"/>
<ellipse cx="438.985" cy="722.5" rx="2.36498" ry="2.5" fill="#D9D9D9" fill-opacity="0.5"/>
<ellipse cx="646.157" cy="859.5" rx="2.36498" ry="2.5" fill="#D9D9D9" fill-opacity="0.5"/>
<ellipse cx="528.854" cy="764.5" rx="2.36498" ry="2.5" fill="#D9D9D9" fill-opacity="0.5"/>
<ellipse cx="584.667" cy="743.5" rx="2.36498" ry="2.5" fill="#D9D9D9" fill-opacity="0.5"/>
<ellipse cx="704.808" cy="806.5" rx="2.36498" ry="2.5" fill="#D9D9D9" fill-opacity="0.5"/>
<ellipse cx="491.014" cy="869.5" rx="2.36498" ry="2.5" fill="#D9D9D9" fill-opacity="0.5"/>
<ellipse cx="646.157" cy="561.5" rx="2.36498" ry="2.5" fill="#D9D9D9" fill-opacity="0.5"/>
<ellipse cx="569.532" cy="593.5" rx="2.36498" ry="2.5" fill="#D9D9D9" fill-opacity="0.5"/>
<ellipse cx="650.887" cy="451.5" rx="2.36498" ry="2.5" fill="#D9D9D9" fill-opacity="0.5"/>
<ellipse cx="858.059" cy="588.5" rx="2.36498" ry="2.5" fill="#D9D9D9" fill-opacity="0.5"/>
<ellipse cx="740.756" cy="493.5" rx="2.36498" ry="2.5" fill="#D9D9D9" fill-opacity="0.5"/>
<ellipse cx="796.57" cy="472.5" rx="2.36498" ry="2.5" fill="#D9D9D9" fill-opacity="0.5"/>
<ellipse cx="916.711" cy="535.5" rx="2.36498" ry="2.5" fill="#D9D9D9" fill-opacity="0.5"/>
<ellipse cx="702.916" cy="598.5" rx="2.36498" ry="2.5" fill="#D9D9D9" fill-opacity="0.5"/>
<ellipse cx="333.034" cy="591.5" rx="2.36498" ry="2.5" fill="#D9D9D9" fill-opacity="0.5"/>
<ellipse cx="256.408" cy="623.5" rx="2.36498" ry="2.5" fill="#D9D9D9" fill-opacity="0.5"/>
<ellipse cx="337.764" cy="481.5" rx="2.36498" ry="2.5" fill="#D9D9D9" fill-opacity="0.5"/>
<ellipse cx="544.936" cy="618.5" rx="2.36498" ry="2.5" fill="#D9D9D9" fill-opacity="0.5"/>
<ellipse cx="427.633" cy="523.5" rx="2.36498" ry="2.5" fill="#D9D9D9" fill-opacity="0.5"/>
<ellipse cx="483.446" cy="502.5" rx="2.36498" ry="2.5" fill="#D9D9D9" fill-opacity="0.5"/>
<ellipse cx="603.587" cy="565.5" rx="2.36498" ry="2.5" fill="#D9D9D9" fill-opacity="0.5"/>
<ellipse cx="389.793" cy="628.5" rx="2.36498" ry="2.5" fill="#D9D9D9" fill-opacity="0.5"/>
<ellipse cx="370.873" cy="744.5" rx="2.36498" ry="2.5" fill="#D9D9D9" fill-opacity="0.5"/>
<ellipse cx="294.248" cy="776.5" rx="2.36498" ry="2.5" fill="#D9D9D9" fill-opacity="0.5"/>
<ellipse cx="375.603" cy="634.5" rx="2.36498" ry="2.5" fill="#D9D9D9" fill-opacity="0.5"/>
<ellipse cx="582.775" cy="771.5" rx="2.36498" ry="2.5" fill="#D9D9D9" fill-opacity="0.5"/>
<ellipse cx="465.472" cy="676.5" rx="2.36498" ry="2.5" fill="#D9D9D9" fill-opacity="0.5"/>
<ellipse cx="521.286" cy="655.5" rx="2.36498" ry="2.5" fill="#D9D9D9" fill-opacity="0.5"/>
<ellipse cx="641.427" cy="718.5" rx="2.36498" ry="2.5" fill="#D9D9D9" fill-opacity="0.5"/>
<ellipse cx="427.633" cy="781.5" rx="2.36498" ry="2.5" fill="#D9D9D9" fill-opacity="0.5"/>
<ellipse cx="701.97" cy="749.5" rx="2.36498" ry="2.5" fill="#D9D9D9" fill-opacity="0.5"/>
<ellipse cx="625.345" cy="781.5" rx="2.36498" ry="2.5" fill="#D9D9D9" fill-opacity="0.5"/>
<ellipse cx="706.7" cy="639.5" rx="2.36498" ry="2.5" fill="#D9D9D9" fill-opacity="0.5"/>
<ellipse cx="913.873" cy="776.5" rx="2.36498" ry="2.5" fill="#D9D9D9" fill-opacity="0.5"/>
<ellipse cx="796.57" cy="681.5" rx="2.36498" ry="2.5" fill="#D9D9D9" fill-opacity="0.5"/>
<ellipse cx="852.383" cy="660.5" rx="2.36498" ry="2.5" fill="#D9D9D9" fill-opacity="0.5"/>
<ellipse cx="972.524" cy="723.5" rx="2.36498" ry="2.5" fill="#D9D9D9" fill-opacity="0.5"/>
<ellipse cx="758.73" cy="786.5" rx="2.36498" ry="2.5" fill="#D9D9D9" fill-opacity="0.5"/>
<ellipse cx="736.026" cy="581.5" rx="2.36498" ry="2.5" fill="#D9D9D9" fill-opacity="0.5"/>
<ellipse cx="659.401" cy="613.5" rx="2.36498" ry="2.5" fill="#D9D9D9" fill-opacity="0.5"/>
<ellipse cx="740.756" cy="471.5" rx="2.36498" ry="2.5" fill="#D9D9D9" fill-opacity="0.5"/>
<ellipse cx="947.928" cy="608.5" rx="2.36498" ry="2.5" fill="#D9D9D9" fill-opacity="0.5"/>
<ellipse cx="830.625" cy="513.5" rx="2.36498" ry="2.5" fill="#D9D9D9" fill-opacity="0.5"/>
<ellipse cx="886.439" cy="492.5" rx="2.36498" ry="2.5" fill="#D9D9D9" fill-opacity="0.5"/>
<ellipse cx="1006.58" cy="555.5" rx="2.36498" ry="2.5" fill="#D9D9D9" fill-opacity="0.5"/>
<ellipse cx="792.786" cy="618.5" rx="2.36498" ry="2.5" fill="#D9D9D9" fill-opacity="0.5"/>
<ellipse cx="941.306" cy="749.5" rx="2.36498" ry="2.5" fill="#D9D9D9" fill-opacity="0.5"/>
<ellipse cx="864.681" cy="781.5" rx="2.36498" ry="2.5" fill="#D9D9D9" fill-opacity="0.5"/>
<ellipse cx="946.036" cy="639.5" rx="2.36498" ry="2.5" fill="#D9D9D9" fill-opacity="0.5"/>
<ellipse cx="1153.21" cy="776.5" rx="2.36498" ry="2.5" fill="#D9D9D9" fill-opacity="0.5"/>
<ellipse cx="1035.91" cy="681.5" rx="2.36498" ry="2.5" fill="#D9D9D9" fill-opacity="0.5"/>
<ellipse cx="1091.72" cy="660.5" rx="2.36498" ry="2.5" fill="#D9D9D9" fill-opacity="0.5"/>
<ellipse cx="1211.86" cy="723.5" rx="2.36498" ry="2.5" fill="#D9D9D9" fill-opacity="0.5"/>
<ellipse cx="998.066" cy="786.5" rx="2.36498" ry="2.5" fill="#D9D9D9" fill-opacity="0.5"/>
<ellipse cx="113.99" cy="591.5" rx="2.36498" ry="2.5" fill="#D9D9D9" fill-opacity="0.5"/>
<ellipse cx="37.365" cy="623.5" rx="2.36498" ry="2.5" fill="#D9D9D9" fill-opacity="0.5"/>
<ellipse cx="118.72" cy="481.5" rx="2.36498" ry="2.5" fill="#D9D9D9" fill-opacity="0.5"/>
<ellipse cx="325.893" cy="618.5" rx="2.36498" ry="2.5" fill="#D9D9D9" fill-opacity="0.5"/>
<ellipse cx="208.59" cy="523.5" rx="2.36498" ry="2.5" fill="#D9D9D9" fill-opacity="0.5"/>
<ellipse cx="264.403" cy="502.5" rx="2.36498" ry="2.5" fill="#D9D9D9" fill-opacity="0.5"/>
<ellipse cx="384.544" cy="565.5" rx="2.36498" ry="2.5" fill="#D9D9D9" fill-opacity="0.5"/>
<ellipse cx="170.75" cy="628.5" rx="2.36498" ry="2.5" fill="#D9D9D9" fill-opacity="0.5"/>
<ellipse cx="151.99" cy="749.5" rx="2.36498" ry="2.5" fill="#D9D9D9" fill-opacity="0.5"/>
<ellipse cx="75.365" cy="781.5" rx="2.36498" ry="2.5" fill="#D9D9D9" fill-opacity="0.5"/>
<ellipse cx="156.72" cy="639.5" rx="2.36498" ry="2.5" fill="#D9D9D9" fill-opacity="0.5"/>
<ellipse cx="363.893" cy="776.5" rx="2.36498" ry="2.5" fill="#D9D9D9" fill-opacity="0.5"/>
<ellipse cx="246.59" cy="681.5" rx="2.36498" ry="2.5" fill="#D9D9D9" fill-opacity="0.5"/>
<ellipse cx="302.403" cy="660.5" rx="2.36498" ry="2.5" fill="#D9D9D9" fill-opacity="0.5"/>
<ellipse cx="422.544" cy="723.5" rx="2.36498" ry="2.5" fill="#D9D9D9" fill-opacity="0.5"/>
<ellipse cx="208.75" cy="786.5" rx="2.36498" ry="2.5" fill="#D9D9D9" fill-opacity="0.5"/>
<ellipse cx="1096.99" cy="595.5" rx="2.36498" ry="2.5" fill="#D9D9D9" fill-opacity="0.5"/>
<ellipse cx="1020.36" cy="627.5" rx="2.36498" ry="2.5" fill="#D9D9D9" fill-opacity="0.5"/>
<ellipse cx="1101.72" cy="485.5" rx="2.36498" ry="2.5" fill="#D9D9D9" fill-opacity="0.5"/>
<ellipse cx="1308.89" cy="622.5" rx="2.36498" ry="2.5" fill="#D9D9D9" fill-opacity="0.5"/>
<ellipse cx="1191.59" cy="527.5" rx="2.36498" ry="2.5" fill="#D9D9D9" fill-opacity="0.5"/>
<ellipse cx="1247.4" cy="506.5" rx="2.36498" ry="2.5" fill="#D9D9D9" fill-opacity="0.5"/>
<ellipse cx="1367.54" cy="569.5" rx="2.36498" ry="2.5" fill="#D9D9D9" fill-opacity="0.5"/>
<ellipse cx="1153.75" cy="632.5" rx="2.36498" ry="2.5" fill="#D9D9D9" fill-opacity="0.5"/>
<ellipse cx="1362.83" cy="560.715" rx="2.36498" ry="2.5" transform="rotate(87.5566 1362.83 560.715)" fill="#D9D9D9" fill-opacity="0.5"/>
<ellipse cx="1327.59" cy="485.523" rx="2.36498" ry="2.5" transform="rotate(87.5566 1327.59 485.523)" fill="#D9D9D9" fill-opacity="0.5"/>
<ellipse cx="1472.93" cy="560.751" rx="2.36498" ry="2.5" transform="rotate(87.5566 1472.93 560.751)" fill="#D9D9D9" fill-opacity="0.5"/>
<ellipse cx="1344.89" cy="773.575" rx="2.36498" ry="2.5" transform="rotate(87.5566 1344.89 773.575)" fill="#D9D9D9" fill-opacity="0.5"/>
<ellipse cx="1434.8" cy="652.329" rx="2.36498" ry="2.5" transform="rotate(87.5566 1434.8 652.329)" fill="#D9D9D9" fill-opacity="0.5"/>
<ellipse cx="1458.16" cy="707.196" rx="2.36498" ry="2.5" transform="rotate(87.5566 1458.16 707.196)" fill="#D9D9D9" fill-opacity="0.5"/>
<ellipse cx="1400.34" cy="829.914" rx="2.36498" ry="2.5" transform="rotate(87.5566 1400.34 829.914)" fill="#D9D9D9" fill-opacity="0.5"/>
<ellipse cx="1328.29" cy="619" rx="2.36498" ry="2.5" transform="rotate(87.5566 1328.29 619)" fill="#D9D9D9" fill-opacity="0.5"/>
<defs>
<linearGradient id="paint0_linear_84_92" x1="0" y1="798" x2="1512" y2="798" gradientUnits="userSpaceOnUse">
<stop stop-color="#003CD7"/>
<stop offset="1" stop-color="#6C00D7"/>
</linearGradient>
<linearGradient id="paint1_linear_84_92" x1="1" y1="352" x2="1513" y2="352" gradientUnits="userSpaceOnUse">
<stop stop-color="#003CD7"/>
<stop offset="1" stop-color="#6C00D7"/>
</linearGradient>
</defs>
</svg>
